<?xml version="1.0" encoding="UTF-8"?>
<svg id="Layer_1" data-name="Layer 1" xmlns="http://www.w3.org/2000/svg" viewBox="0 0 180.46 44.25">
  <defs>
    <style>
      .cls-1 {
        fill: #1d5d2f;
      }

      .cls-2 {
        fill: #f05236;
      }

      .cls-3 {
        fill: #fff200;
      }

      .cls-4 {
        fill: #ed1c24;
      }

      .cls-5 {
        fill: #231f20;
      }
    </style>
  </defs>
  <path class="cls-5" d="m37.11,36.06c1.43-1.61,2.59-3.41,3.48-5.4.13-.28.25-.56.36-.84.99-2.45,1.48-5.01,1.48-7.67s-.48-5.1-1.43-7.54c-.51-1.32-1.14-2.57-1.88-3.75-.62-1-1.33-1.96-2.11-2.87-1.71-1.98-3.78-3.56-6.2-4.74-2.41-1.18-5.09-1.77-8.02-1.77s-5.54.56-7.96,1.69c-2.42,1.12-4.51,2.64-6.28,4.56-1.77,1.92-3.16,4.11-4.17,6.57-1.01,2.45-1.51,5.03-1.51,7.73s.48,5.11,1.43,7.57c.95,2.45,2.29,4.65,4.02,6.59s3.81,3.49,6.22,4.65c2.42,1.16,5.11,1.74,8.08,1.74s5.49-.55,7.91-1.65c.82-.38,1.6-.8,2.35-1.28l2.36,2.65h7.42l-5.55-6.24Zm-9.35-1.61c-1.48.78-3.18,1.17-5.08,1.17s-3.53-.38-5-1.14c-1.46-.76-2.7-1.77-3.71-3.03-1.01-1.25-1.78-2.7-2.31-4.34-.53-1.63-.8-3.33-.8-5.08s.26-3.31.77-4.91c.52-1.6,1.27-3.05,2.26-4.36.99-1.32,2.21-2.36,3.68-3.14,1.46-.78,3.17-1.17,5.11-1.17,1.83,0,3.47.38,4.94,1.14,1.46.76,2.7,1.77,3.71,3.02,1.01,1.26,1.79,2.71,2.34,4.34.55,1.64.83,3.33.83,5.08,0,1.64-.26,3.27-.77,4.88-.41,1.26-.95,2.43-1.64,3.51l-2.79-3.14h-7.42l6.21,6.98c-.11.07-.22.13-.33.19Z"/>
  <path class="cls-4" d="m62.79,4.96v17.38c0,1.38-.15,2.73-.44,4.06-.28,1.32-.74,2.52-1.36,3.57-.63,1.06-1.48,1.9-2.55,2.52s-2.41.94-4.01.94-2.88-.31-3.93-.91c-1.06-.61-1.91-1.44-2.55-2.5-.64-1.06-1.09-2.25-1.36-3.58-.28-1.32-.41-2.69-.41-4.1V4.96h-6.63v.9c.06.05.11.11.16.17,1.93,2.22,3.45,4.75,4.52,7.49,1.08,2.77,1.63,5.68,1.63,8.63s-.57,6-1.7,8.8c-.41,1.01-.88,1.99-1.41,2.92.06.1.12.19.19.28,1.17,1.6,2.7,2.85,4.61,3.77,1.9.91,4.21,1.36,6.93,1.36s4.88-.44,6.77-1.32,3.43-2.09,4.63-3.64c1.2-1.56,2.08-3.36,2.64-5.4.56-2.05.84-4.24.84-6.58V4.96h-6.57Z"/>
  <path class="cls-3" d="m79.96,4.96h6.72l12.53,34.08h-6.82l-2.83-8.5h-12.51l-2.85,8.5h-6.82l12.58-34.08Zm8.05,20.93l-4.69-14.06-4.71,14.06h9.4Z"/>
  <path class="cls-1" d="m121.27,10.77h-10.9v28.27h-6.58V10.77h-10.9v-5.81h28.37v5.81Z"/>
  <path class="cls-2" d="m148.61,34.27l-3.89-6.4-.99-1.64c.15-.07.29-.13.44-.21,1.06-.53,2-1.22,2.82-2.1.93-.99,1.64-2.15,2.14-3.48.49-1.32.74-2.71.74-4.15s-.26-2.78-.79-4.13c-.25-.64-.55-1.25-.91-1.83-.39-.64-.84-1.24-1.35-1.81-.97-1.09-2.13-1.96-3.45-2.6-1.33-.64-2.78-.96-4.35-.96h-15.07v34.08h6.62v-11.42h6.63l7.01,11.42h7.29l-2.89-4.77Zm-5.99-15.19c-.38.83-.89,1.49-1.53,1.99-.64.49-1.38.74-2.21.74h-8.31v-11.04h8.02c.8,0,1.54.24,2.23.72.69.48,1.26,1.13,1.71,1.95.44.81.67,1.76.67,2.85,0,1.03-.19,1.95-.58,2.79Z"/>
  <path class="cls-5" d="m176.77,15.76c-.8-2.04-1.92-3.9-3.36-5.56-1.44-1.67-3.18-3-5.21-3.99-2.03-.99-4.28-1.49-6.75-1.49s-4.66.48-6.69,1.42c-1.54.71-2.92,1.62-4.15,2.73.53.8.98,1.66,1.33,2.56.58,1.47.89,3,.92,4.54.32-.61.69-1.19,1.11-1.74.83-1.09,1.86-1.96,3.09-2.62,1.23-.65,2.67-.98,4.3-.98,1.53,0,2.92.31,4.15.93,1.23.63,2.27,1.48,3.12,2.55.85,1.07,1.5,2.29,1.97,3.65.46,1.36.69,2.77.69,4.24,0,1.38-.21,2.75-.64,4.11-.44,1.36-1.07,2.59-1.9,3.69-.83,1.11-1.87,1.99-3.12,2.64-1.25.66-2.67.99-4.27.99s-2.97-.32-4.2-.94c-1.23-.62-2.27-1.47-3.12-2.54-.85-1.07-1.5-2.3-1.95-3.67-.4-1.24-.62-2.52-.66-3.84-.53,1.05-1.19,2.01-1.98,2.85-.59.63-1.24,1.19-1.94,1.67l6.42,10.58c.19.11.39.21.59.3,2.03.96,4.29,1.44,6.79,1.44s4.62-.46,6.65-1.39c2.03-.93,3.79-2.2,5.28-3.81,1.49-1.62,2.65-3.46,3.48-5.52.83-2.07,1.25-4.22,1.25-6.46s-.4-4.29-1.2-6.34Z"/>
</svg>